<?xml version="1.0" standalone="no"?>
<!DOCTYPE svg PUBLIC "-//W3C//DTD SVG 20010904//EN"
 "http://www.w3.org/TR/2001/REC-SVG-20010904/DTD/svg10.dtd">
<svg version="1.0" xmlns="http://www.w3.org/2000/svg"
 width="1251.000000pt" height="1251.000000pt" viewBox="0 0 1251.000000 1251.000000"
 preserveAspectRatio="xMidYMid meet">
<metadata>
Created by potrace 1.11, written by Peter Selinger 2001-2013
</metadata>
<g transform="translate(0.000000,1251.000000) scale(0.100000,-0.100000)"
fill="#000000" stroke="none">
<path d="M5820 12489 c-1326 -93 -2550 -589 -3591 -1455 -198 -164 -589 -555
-753 -753 -873 -1049 -1363 -2265 -1456 -3611 -22 -316 -11 -778 25 -1115 106
-975 458 -1941 1007 -2765 780 -1169 1933 -2046 3261 -2479 1020 -333 2126
-397 3187 -185 954 191 1869 618 2643 1231 1079 856 1849 2053 2181 3388 197
792 235 1648 110 2465 -264 1727 -1251 3272 -2714 4248 -222 148 -411 256
-680 391 -750 374 -1507 579 -2365 641 -161 11 -685 11 -855 -1z m-868 -3577
c671 -1728 724 -1861 738 -1843 8 11 40 61 70 111 420 696 1151 1151 2033
1266 169 22 511 29 677 15 459 -40 852 -196 1241 -491 95 -72 133 -92 181 -94
98 -2 159 120 190 380 l12 104 95 0 94 0 -7 -147 c-10 -210 -25 -1097 -26
-1486 l0 -328 -92 3 -93 3 -8 60 c-28 199 -60 390 -83 492 -68 306 -182 551
-347 745 -73 85 -247 235 -354 305 -396 259 -950 325 -1356 163 -346 -139
-612 -409 -817 -832 -182 -374 -281 -771 -342 -1363 -16 -160 -16 -882 0
-1080 74 -887 259 -1454 588 -1804 243 -259 546 -383 929 -383 172 0 291 20
417 70 212 85 321 204 349 382 18 116 7 1167 -14 1291 -48 286 -161 402 -441
454 -63 11 -296 35 -347 35 -5 0 -9 36 -9 80 l0 80 293 -7 c378 -10 1701 -10
1970 0 l207 7 0 -79 0 -80 -47 -6 c-201 -28 -270 -95 -304 -296 -9 -54 -13
-335 -16 -1032 l-4 -958 -82 3 -82 3 -7 66 c-19 192 -96 350 -185 380 -92 30
-201 -11 -626 -235 -299 -157 -550 -247 -842 -301 -121 -23 -462 -31 -652 -16
-991 78 -1701 462 -2125 1148 -201 324 -340 741 -393 1173 -9 74 -18 150 -21
169 l-6 34 -411 -7 c-227 -3 -467 -9 -534 -13 l-123 -6 0 80 c0 93 0 93 88 93
84 0 240 26 307 51 67 25 126 74 151 127 25 51 23 173 -5 279 -16 61 -385
1084 -538 1491 l-16 42 -875 -2 -875 -3 -119 -305 c-208 -534 -272 -744 -304
-983 -47 -357 50 -557 316 -649 68 -23 216 -48 290 -48 100 0 100 -1 100 -91
l0 -80 -262 8 c-332 10 -1038 10 -1226 1 l-143 -8 3 82 3 82 46 11 c129 33
300 176 408 340 108 164 189 360 739 1775 302 778 726 1870 942 2425 l392
1010 283 0 284 0 723 -1863z"/>
<path d="M3367 9523 c-13 -20 -827 -2146 -824 -2150 2 -2 368 -2 814 -1 l811
3 -394 1070 c-217 589 -395 1074 -397 1080 -2 5 -6 4 -10 -2z"/>
</g>
</svg>
